<?xml version="1.0" encoding="UTF-8" standalone="no"?>
<!DOCTYPE svg PUBLIC "-//W3C//DTD SVG 1.1//EN"
 "http://www.w3.org/Graphics/SVG/1.1/DTD/svg11.dtd">
<!-- Generated by graphviz version 14.1.2 (20260124.0452)
 -->
<!-- Title: verify_plan Pages: 1 -->
<svg width="752pt" height="187pt"
 viewBox="0.00 0.00 752.00 187.00" xmlns="http://www.w3.org/2000/svg" xmlns:xlink="http://www.w3.org/1999/xlink">
<g id="graph0" class="graph" transform="scale(1 1) rotate(0) translate(4 183)">
<title>verify_plan</title>
<polygon fill="white" stroke="none" points="-4,4 -4,-183 748.25,-183 748.25,4 -4,4"/>
<!-- input -->
<g id="node1" class="node">
<title>input</title>
<path fill="#37474f" stroke="#263238" d="M80.5,-99.5C80.5,-99.5 12,-99.5 12,-99.5 6,-99.5 0,-93.5 0,-87.5 0,-87.5 0,-75.5 0,-75.5 0,-69.5 6,-63.5 12,-63.5 12,-63.5 80.5,-63.5 80.5,-63.5 86.5,-63.5 92.5,-69.5 92.5,-75.5 92.5,-75.5 92.5,-87.5 92.5,-87.5 92.5,-93.5 86.5,-99.5 80.5,-99.5"/>
<text xml:space="preserve" text-anchor="middle" x="46.25" y="-83.25" font-family="Helvetica,sans-Serif" font-size="10.00" fill="white">Plan File</text>
<text xml:space="preserve" text-anchor="middle" x="46.25" y="-72" font-family="Helvetica,sans-Serif" font-size="10.00" fill="white">(docs/plans/*.md)</text>
</g>
<!-- stage1 -->
<g id="node2" class="node">
<title>stage1</title>
<path fill="#66bb6a" stroke="#2e7d32" d="M213.75,-108C213.75,-108 141.5,-108 141.5,-108 135.5,-108 129.5,-102 129.5,-96 129.5,-96 129.5,-67 129.5,-67 129.5,-61 135.5,-55 141.5,-55 141.5,-55 213.75,-55 213.75,-55 219.75,-55 225.75,-61 225.75,-67 225.75,-67 225.75,-96 225.75,-96 225.75,-102 219.75,-108 213.75,-108"/>
<text xml:space="preserve" text-anchor="middle" x="177.62" y="-94.5" font-family="Helvetica,sans-Serif" font-size="10.00" fill="white">Stage 1: Explorer</text>
<text xml:space="preserve" text-anchor="middle" x="177.62" y="-83.25" font-family="Helvetica,sans-Serif" font-size="10.00" fill="white">(Haiku)</text>
<text xml:space="preserve" text-anchor="middle" x="177.62" y="-72" font-family="Helvetica,sans-Serif" font-size="10.00" fill="white">Gather signatures,</text>
<text xml:space="preserve" text-anchor="middle" x="177.62" y="-60.75" font-family="Helvetica,sans-Serif" font-size="10.00" fill="white">types, callers</text>
</g>
<!-- input&#45;&gt;stage1 -->
<g id="edge1" class="edge">
<title>input&#45;&gt;stage1</title>
<path fill="none" stroke="#666666" stroke-width="2" d="M92.86,-81.5C100.5,-81.5 108.54,-81.5 116.48,-81.5"/>
<polygon fill="#666666" stroke="#666666" stroke-width="2" points="116.21,-85 126.21,-81.5 116.21,-78 116.21,-85"/>
</g>
<!-- stage2a -->
<g id="node3" class="node">
<title>stage2a</title>
<path fill="#ff7043" stroke="#bf360c" d="M379.62,-179C379.62,-179 290.12,-179 290.12,-179 284.12,-179 278.12,-173 278.12,-167 278.12,-167 278.12,-138 278.12,-138 278.12,-132 284.12,-126 290.12,-126 290.12,-126 379.62,-126 379.62,-126 385.62,-126 391.62,-132 391.62,-138 391.62,-138 391.62,-167 391.62,-167 391.62,-173 385.62,-179 379.62,-179"/>
<text xml:space="preserve" text-anchor="middle" x="334.88" y="-165.5" font-family="Helvetica,sans-Serif" font-size="10.00" fill="white">Stage 2A: Plan Prover</text>
<text xml:space="preserve" text-anchor="middle" x="334.88" y="-154.25" font-family="Helvetica,sans-Serif" font-size="10.00" fill="white">(Opus step&#45;simulator)</text>
<text xml:space="preserve" text-anchor="middle" x="334.88" y="-143" font-family="Helvetica,sans-Serif" font-size="10.00" fill="white">Trace target scenario</text>
<text xml:space="preserve" text-anchor="middle" x="334.88" y="-131.75" font-family="Helvetica,sans-Serif" font-size="10.00" fill="white">with concrete data</text>
</g>
<!-- stage1&#45;&gt;stage2a -->
<g id="edge2" class="edge">
<title>stage1&#45;&gt;stage2a</title>
<path fill="none" stroke="#666666" stroke-width="2" d="M226.05,-103.19C238.67,-108.96 252.55,-115.31 266.04,-121.48"/>
<polygon fill="#666666" stroke="#666666" stroke-width="2" points="264.44,-124.59 274.99,-125.57 267.35,-118.23 264.44,-124.59"/>
</g>
<!-- stage2b -->
<g id="node4" class="node">
<title>stage2b</title>
<path fill="#ff7043" stroke="#bf360c" d="M395,-108C395,-108 274.75,-108 274.75,-108 268.75,-108 262.75,-102 262.75,-96 262.75,-96 262.75,-67 262.75,-67 262.75,-61 268.75,-55 274.75,-55 274.75,-55 395,-55 395,-55 401,-55 407,-61 407,-67 407,-67 407,-96 407,-96 407,-102 401,-108 395,-108"/>
<text xml:space="preserve" text-anchor="middle" x="334.88" y="-94.5" font-family="Helvetica,sans-Serif" font-size="10.00" fill="white">Stage 2B: Regression Hunter</text>
<text xml:space="preserve" text-anchor="middle" x="334.88" y="-83.25" font-family="Helvetica,sans-Serif" font-size="10.00" fill="white">(Opus step&#45;simulator)</text>
<text xml:space="preserve" text-anchor="middle" x="334.88" y="-72" font-family="Helvetica,sans-Serif" font-size="10.00" fill="white">Trace OTHER flows</text>
<text xml:space="preserve" text-anchor="middle" x="334.88" y="-60.75" font-family="Helvetica,sans-Serif" font-size="10.00" fill="white">(nype46, gencon1994...)</text>
</g>
<!-- stage1&#45;&gt;stage2b -->
<g id="edge3" class="edge">
<title>stage1&#45;&gt;stage2b</title>
<path fill="none" stroke="#666666" stroke-width="2" d="M226.05,-81.5C233.6,-81.5 241.6,-81.5 249.69,-81.5"/>
<polygon fill="#666666" stroke="#666666" stroke-width="2" points="249.42,-85 259.42,-81.5 249.42,-78 249.42,-85"/>
</g>
<!-- stage3 -->
<g id="node5" class="node">
<title>stage3</title>
<path fill="#42a5f5" stroke="#1565c0" d="M570.75,-113C570.75,-113 471.5,-113 471.5,-113 465.5,-113 459.5,-107 459.5,-101 459.5,-101 459.5,-72 459.5,-72 459.5,-66 465.5,-60 471.5,-60 471.5,-60 570.75,-60 570.75,-60 576.75,-60 582.75,-66 582.75,-72 582.75,-72 582.75,-101 582.75,-101 582.75,-107 576.75,-113 570.75,-113"/>
<text xml:space="preserve" text-anchor="middle" x="521.12" y="-99.5" font-family="Helvetica,sans-Serif" font-size="10.00" fill="white">Stage 3: Code Reviewer</text>
<text xml:space="preserve" text-anchor="middle" x="521.12" y="-88.25" font-family="Helvetica,sans-Serif" font-size="10.00" fill="white">(Sonnet)</text>
<text xml:space="preserve" text-anchor="middle" x="521.12" y="-77" font-family="Helvetica,sans-Serif" font-size="10.00" fill="white">Review proposed code</text>
<text xml:space="preserve" text-anchor="middle" x="521.12" y="-65.75" font-family="Helvetica,sans-Serif" font-size="10.00" fill="white">vs patterns</text>
</g>
<!-- stage2a&#45;&gt;stage3 -->
<g id="edge4" class="edge">
<title>stage2a&#45;&gt;stage3</title>
<path fill="none" stroke="#666666" stroke-width="2" d="M391.91,-132.43C409.28,-126.21 428.69,-119.25 447.04,-112.68"/>
<polygon fill="#666666" stroke="#666666" stroke-width="2" points="448.14,-116 456.38,-109.33 445.78,-109.41 448.14,-116"/>
</g>
<!-- stage2b&#45;&gt;stage3 -->
<g id="edge5" class="edge">
<title>stage2b&#45;&gt;stage3</title>
<path fill="none" stroke="#666666" stroke-width="2" d="M407.37,-83.44C420.2,-83.79 433.58,-84.15 446.46,-84.5"/>
<polygon fill="#666666" stroke="#666666" stroke-width="2" points="446.02,-87.99 456.11,-84.76 446.21,-80.99 446.02,-87.99"/>
</g>
<!-- pass -->
<g id="node6" class="node">
<title>pass</title>
<path fill="#c8e6c9" stroke="#388e3c" d="M728.88,-112.38C728.88,-112.38 678.38,-112.38 678.38,-112.38 672.38,-112.38 666.38,-106.38 666.38,-100.38 666.38,-100.38 666.38,-82.62 666.38,-82.62 666.38,-76.62 672.38,-70.62 678.38,-70.62 678.38,-70.62 728.88,-70.62 728.88,-70.62 734.88,-70.62 740.88,-76.62 740.88,-82.62 740.88,-82.62 740.88,-100.38 740.88,-100.38 740.88,-106.38 734.88,-112.38 728.88,-112.38"/>
<text xml:space="preserve" text-anchor="middle" x="703.62" y="-98.88" font-family="Helvetica,sans-Serif" font-size="10.00" fill="white">PASS</text>
<text xml:space="preserve" text-anchor="middle" x="703.62" y="-87.62" font-family="Helvetica,sans-Serif" font-size="10.00" fill="white">Proceed to</text>
<text xml:space="preserve" text-anchor="middle" x="703.62" y="-76.38" font-family="Helvetica,sans-Serif" font-size="10.00" fill="white">/execute&#45;plan</text>
</g>
<!-- stage3&#45;&gt;pass -->
<g id="edge6" class="edge">
<title>stage3&#45;&gt;pass</title>
<path fill="none" stroke="#388e3c" stroke-width="2" d="M583.23,-88.19C606.02,-88.82 631.58,-89.53 653.18,-90.13"/>
<polygon fill="#388e3c" stroke="#388e3c" stroke-width="2" points="652.95,-93.63 663.04,-90.4 653.14,-86.63 652.95,-93.63"/>
<text xml:space="preserve" text-anchor="middle" x="622.88" y="-91.28" font-family="Helvetica,sans-Serif" font-size="8.00">all clear</text>
</g>
<!-- fail -->
<g id="node7" class="node">
<title>fail</title>
<path fill="#ffcdd2" stroke="#d32f2f" d="M732.25,-53C732.25,-53 675,-53 675,-53 669,-53 663,-47 663,-41 663,-41 663,-12 663,-12 663,-6 669,0 675,0 675,0 732.25,0 732.25,0 738.25,0 744.25,-6 744.25,-12 744.25,-12 744.25,-41 744.25,-41 744.25,-47 738.25,-53 732.25,-53"/>
<text xml:space="preserve" text-anchor="middle" x="703.62" y="-39.5" font-family="Helvetica,sans-Serif" font-size="10.00" fill="white">FAIL</text>
<text xml:space="preserve" text-anchor="middle" x="703.62" y="-28.25" font-family="Helvetica,sans-Serif" font-size="10.00" fill="white">Retry (max 3x)</text>
<text xml:space="preserve" text-anchor="middle" x="703.62" y="-17" font-family="Helvetica,sans-Serif" font-size="10.00" fill="white">then suggest</text>
<text xml:space="preserve" text-anchor="middle" x="703.62" y="-5.75" font-family="Helvetica,sans-Serif" font-size="10.00" fill="white">/brainstorming</text>
</g>
<!-- stage3&#45;&gt;fail -->
<g id="edge7" class="edge">
<title>stage3&#45;&gt;fail</title>
<path fill="none" stroke="#d32f2f" stroke-width="2" d="M583.23,-66.19C605.02,-58.95 629.34,-50.86 650.32,-43.89"/>
<polygon fill="#d32f2f" stroke="#d32f2f" stroke-width="2" points="651.31,-47.25 659.69,-40.77 649.1,-40.6 651.31,-47.25"/>
<text xml:space="preserve" text-anchor="middle" x="622.88" y="-61.49" font-family="Helvetica,sans-Serif" font-size="8.00">issues found</text>
</g>
<!-- fail&#45;&gt;stage1 -->
<g id="edge8" class="edge">
<title>fail&#45;&gt;stage1</title>
<path fill="none" stroke="#f44336" stroke-dasharray="5,2" d="M662.56,-23.48C584.48,-18.62 406.97,-12.68 262.75,-45.5 254.15,-47.46 245.31,-50.26 236.76,-53.45"/>
<polygon fill="#f44336" stroke="#f44336" points="235.53,-50.17 227.52,-57.11 238.1,-56.68 235.53,-50.17"/>
<text xml:space="preserve" text-anchor="middle" x="433.25" y="-24.48" font-family="Helvetica,sans-Serif" font-size="8.00">retry</text>
</g>
</g>
</svg>
